# xmcd CD database file
#
# Track frame offsets:
#	150
#	12085
#	24772
#	40058
#	54331
#	69702
#	81901
#	93468
#	103647
#	127569
#	139400
#	149062
#	160272
#	170717
#	193124
#	211681
#	220629
#	243383
#	261053
#	275621
#	286034
#	305045
#	323409
#
# Disc length: 4545 seconds
#
# Revision: 0
# Processed by: cddbd v1.5.1PL0 Copyright (c) Steve Scherf et al.
# Submitted via: CDex 1.51
#
DISCID=4311bf17
DTITLE=Diverse - Caribbean Tropical Dance Party
DYEAR=2001
DGENRE=Merengue
TTITLE0=Maremare
TTITLE1=Quitate el zapato
TTITLE2=Quiero un Sombrero
TTITLE3=Chapa´lante Catalina
TTITLE4=Carcoles de Colores
TTITLE5=Tan bella y tan presumida
TTITLE6=El pescador
TTITLE7=Villa Carino
TTITLE8=Neati
TTITLE9=Solo quedo
TTITLE10=Yo no bailo con Juana
TTITLE11=Justiniana
TTITLE12=La casita blanca
TTITLE13=Suave
TTITLE14=Mensaje de mi Colombia
TTITLE15=La cosecha de mujeres
TTITLE16=Fantasia de Caribena
TTITLE17=La Piragua
TTITLE18=Canto Latinamericano
TTITLE19=Comparsa tu Babalu
TTITLE20=Sol y arena
TTITLE21=Ojalà que Ilueva cafè
TTITLE22=Kike
EXTD=YEAR: 2001
EXTT0=
EXTT1=
EXTT2=
EXTT3=
EXTT4=
EXTT5=
EXTT6=
EXTT7=
EXTT8=
EXTT9=
EXTT10=
EXTT11=
EXTT12=
EXTT13=
EXTT14=
EXTT15=
EXTT16=
EXTT17=
EXTT18=
EXTT19=
EXTT20=
EXTT21=
EXTT22=
PLAYORDER=
